<svg width="115" height="43" viewBox="0 0 115 43" fill="none" xmlns="http://www.w3.org/2000/svg">
<path d="M60.1974 10.9643L55.9205 24.2857H55.8492L51.608 11H45.0144L45.7629 12.9286C43.8739 11.5357 41.4503 10.5714 38.706 10.5714C33.146 10.5714 31.1858 13.8929 31.1858 17.1429C31.1858 21.7143 35.035 23.3929 37.4586 24.1429C40.6662 25.1072 40.8801 25.7143 40.8801 26.4286C40.8801 27.1071 40.3455 27.7143 38.706 27.7143C36.8883 27.7143 35.1419 26.9286 33.7876 25.2857L29.7601 29.1071C32.0768 31.9643 35.2845 33.4643 38.8485 33.4643C43.9452 33.4643 47.1529 30.5714 47.1529 26.3214C47.1529 22.5714 44.7293 20.7143 40.5593 19.2143C38.3852 18.3928 37.3873 18.1071 37.3873 17.4286C37.3873 16.7143 37.815 16.2143 38.9911 16.2143C40.7375 16.2143 42.4126 17.3214 43.3393 18.1786L46.4044 14.7143L53.4242 33.2273H58.5565L66.2564 12.4184V16.8214H71.9233V33.2273H78.0179V16.8214H110.059L114.015 10.9643H60.1974Z" fill="white"/>
<path d="M24.4853 24.9643L12.1535 43L0 25.1429L12.2605 33.3928L24.4853 24.9643Z" fill="white"/>
<path d="M0 18.0357L12.3318 0L24.4853 17.8571L12.2605 9.60715L0 18.0357Z" fill="#00A1B7"/>
</svg>
