<svg width="88" height="33" viewBox="0 0 88 33" fill="none" xmlns="http://www.w3.org/2000/svg">
<path d="M46.198 8.41445L42.9158 18.6379H42.861L39.6061 8.44186H34.546L35.1204 9.92193C33.6707 8.85299 31.8107 8.11296 29.7046 8.11296C25.4376 8.11296 23.9333 10.662 23.9333 13.1561C23.9333 16.6644 26.8873 17.9527 28.7473 18.5282C31.209 19.2683 31.3731 19.7342 31.3731 20.2824C31.3731 20.8032 30.9628 21.2691 29.7046 21.2691C28.3096 21.2691 26.9694 20.6661 25.93 19.4053L22.8392 22.338C24.6171 24.5307 27.0788 25.6819 29.814 25.6819C33.7254 25.6819 36.1871 23.4618 36.1871 20.2002C36.1871 17.3223 34.3271 15.897 31.1269 14.7458C29.4584 14.1154 28.6926 13.8962 28.6926 13.3754C28.6926 12.8272 29.0208 12.4435 29.9234 12.4435C31.2637 12.4435 32.5492 13.2932 33.2604 13.951L35.6127 11.2924L41 25.5H44.9387L50.8479 9.5304V12.9095H55.1969V25.5H59.8742V12.9095H84.4639L87.5 8.41445H46.198Z" fill="#3B505B"/>
<path d="M18.791 19.1586L9.32714 33L0 19.2957L9.40919 25.6271L18.791 19.1586Z" fill="#3B505B"/>
<path d="M0 13.8414L9.4639 0L18.791 13.7043L9.40919 7.37293L0 13.8414Z" fill="#00A1B7"/>
</svg>
