<svg width="231" height="87" viewBox="0 0 231 87" fill="none" xmlns="http://www.w3.org/2000/svg">
<path d="M169.479 48.7256C169.479 47.5057 170.411 46.5728 171.631 46.5728C172.205 46.5728 172.708 46.7881 173.067 47.0751L172.78 47.4339C172.492 47.1469 172.062 47.0033 171.631 47.0033C170.698 47.0033 169.981 47.7209 169.981 48.7256C169.981 49.6585 170.77 50.4478 171.631 50.4478C172.062 50.4478 172.492 50.3043 172.78 50.0173L173.067 50.3761C172.708 50.6631 172.205 50.9502 171.631 50.9502C170.411 50.8784 169.479 49.9455 169.479 48.7256Z" fill="black"/>
<path d="M173.928 48.7256C173.928 47.5057 174.861 46.5728 176.081 46.5728C177.3 46.5728 178.233 47.5057 178.233 48.7256C178.233 49.9455 177.3 50.8784 176.081 50.8784C174.861 50.8784 173.928 49.9455 173.928 48.7256ZM177.803 48.7256C177.803 47.7927 177.013 47.0033 176.152 47.0033C175.219 47.0033 174.502 47.7209 174.502 48.7256C174.502 49.6585 175.291 50.4478 176.152 50.4478C177.013 50.4478 177.803 49.6585 177.803 48.7256Z" fill="black"/>
<path d="M179.598 50.8066V46.5728H181.32C182.038 46.5728 182.54 47.0033 182.54 47.6492C182.54 48.0797 182.253 48.4386 181.966 48.5103C182.396 48.5821 182.755 49.0126 182.755 49.5867C182.755 50.3043 182.181 50.7349 181.535 50.7349H179.598V50.8066ZM180.1 48.3668H181.32C181.75 48.3668 182.038 48.0797 182.038 47.7209C182.038 47.3621 181.75 47.0751 181.32 47.0751H180.1V48.3668ZM180.1 50.3761H181.463C181.894 50.3761 182.253 50.0173 182.253 49.5867C182.253 49.1562 181.894 48.7973 181.392 48.7973H180.028V50.3761H180.1Z" fill="black"/>
<path d="M183.977 50.8066V46.5728H185.484C186.345 46.5728 186.919 47.1468 186.919 47.9362C186.919 48.7973 186.345 49.2997 185.484 49.2997H184.479V50.8066H183.977ZM184.479 48.8691H185.484C186.058 48.8691 186.416 48.5103 186.416 48.008C186.416 47.4339 186.058 47.1468 185.484 47.1468H184.479V48.8691Z" fill="black"/>
<path d="M188.139 50.8066V46.5728H191.081V47.0751H188.641V48.4385H190.65V48.9409H188.641V50.3761H191.153V50.8784H188.139V50.8066Z" fill="black"/>
<path d="M192.156 50.8066L192.659 46.5728H193.233L194.524 50.089L195.816 46.5728H196.39L196.892 50.8066H196.39L196.031 47.3621L194.74 50.8066H194.309L193.017 47.3621L192.659 50.8066H192.156Z" fill="black"/>
<path d="M198.256 50.8066V46.5728H201.198V47.0751H198.758V48.4385H200.767V48.9409H198.758V50.3761H201.27V50.8784H198.256V50.8066Z" fill="black"/>
<path d="M202.561 50.8066V46.5728H203.063V48.3668H205.575V46.5728H206.077V50.8066H205.575V48.8691H203.063V50.8066H202.561Z" fill="black"/>
<path d="M207.656 50.8066V46.5728H208.159V48.3668H210.67V46.5728H211.173V50.8066H210.67V48.8691H208.159V50.8066H207.656Z" fill="black"/>
<path d="M212.822 50.8066V46.5728H213.325V48.1515H214.329C215.19 48.1515 215.764 48.7256 215.764 49.4432C215.764 50.2326 215.19 50.8066 214.329 50.8066H212.822ZM213.325 50.3761H214.257C214.76 50.3761 215.19 50.0173 215.19 49.5149C215.19 49.0126 214.76 48.6538 214.257 48.6538H213.325V50.3761ZM216.554 50.8066V46.5728H217.056V50.8066H216.554Z" fill="black"/>
<path d="M218.707 50.8066V46.5728H221.649V47.0751H219.209V48.4385H221.219V48.9409H219.209V50.3761H221.721V50.8784H218.707V50.8066Z" fill="black"/>
<path d="M169.768 58.5568V54.3229H171.49C172.207 54.3229 172.71 54.7535 172.71 55.3993C172.71 55.8299 172.423 56.1887 172.136 56.2605C172.566 56.3322 172.925 56.7628 172.925 57.3369C172.925 58.0545 172.351 58.485 171.705 58.485H169.768V58.5568ZM170.27 56.1169H171.49C171.92 56.1169 172.207 55.8299 172.207 55.4711C172.207 55.1123 171.92 54.8253 171.49 54.8253H170.27V56.1169ZM170.27 58.1262H171.633C172.064 58.1262 172.423 57.7674 172.423 57.3369C172.423 56.9063 172.064 56.5475 171.562 56.5475H170.198V58.1262H170.27Z" fill="black"/>
<path d="M174.145 58.5568V54.3229H177.087V54.8253H174.647V56.1887H176.656V56.691H174.647V58.1262H177.158V58.6286H174.145V58.5568Z" fill="black"/>
<path d="M178.449 58.5568V54.3229H179.956C180.817 54.3229 181.391 54.897 181.391 55.6864C181.391 56.5475 180.817 57.0498 179.956 57.0498H178.952V58.5568H178.449ZM178.952 56.6193H179.956C180.53 56.6193 180.889 56.2605 180.889 55.7581C180.889 55.1841 180.53 54.897 179.956 54.897H178.952V56.6193Z" fill="black"/>
<path d="M183.545 58.5568V54.8253H182.182V54.3229H185.411V54.8253H184.047V58.5568H183.545Z" fill="black"/>
<path d="M190.147 58.5568H189.644V55.1123L187.061 58.5568H186.559V54.3229H187.061V57.7674L189.573 54.3229H190.075V58.5568H190.147Z" fill="black"/>
<path d="M191.797 58.5568V54.3229H192.299V56.1169H193.16L194.452 54.3229H195.026L193.519 56.3322L195.098 58.5568H194.524L193.16 56.5475H192.299V58.5568H191.797Z" fill="black"/>
<path d="M198.973 58.5568L198.614 57.5522H196.533L196.174 58.5568H195.672L197.394 54.3229H197.825L199.547 58.5568H198.973ZM196.748 57.1216H198.471L197.681 54.9688L196.748 57.1216Z" fill="black"/>
<path d="M200.123 58.5568V58.1262C200.267 58.1262 200.267 58.1262 200.41 58.1262C201.128 58.1262 201.199 56.6193 201.199 54.3229H204.07V58.5568H203.568V54.8253H201.63C201.63 56.9063 201.558 58.6286 200.41 58.6286C200.267 58.6286 200.195 58.5568 200.123 58.5568Z" fill="black"/>
<path d="M205.646 58.5568V54.3229H206.149V55.9017H207.153C208.015 55.9017 208.589 56.4757 208.589 57.1934C208.589 57.9827 208.015 58.5568 207.153 58.5568H205.646ZM206.149 58.1262H207.082C207.584 58.1262 208.015 57.7674 208.015 57.2651C208.015 56.7628 207.584 56.404 207.082 56.404H206.149V58.1262Z" fill="black"/>
<path d="M209.881 58.5568V54.3229H210.383V56.1169H212.895V54.3229H213.397V58.5568H212.895V56.6193H210.383V58.5568H209.881Z" fill="black"/>
<path d="M214.975 58.5568V54.3229H215.477V55.9017H216.482C217.343 55.9017 217.917 56.4757 217.917 57.1934C217.917 57.9827 217.343 58.5568 216.482 58.5568H214.975ZM215.477 58.1262H216.41C216.912 58.1262 217.343 57.7674 217.343 57.2651C217.343 56.7628 216.912 56.404 216.41 56.404H215.477V58.1262ZM218.778 58.5568V54.3229H219.28V58.5568H218.778Z" fill="black"/>
<path d="M220.861 58.5568V54.3229H223.804V54.8253H221.364V56.1887H223.373V56.691H221.364V58.1262H223.875V58.6286H220.861V58.5568Z" fill="black"/>
<path d="M170.699 66.307V62.5754H169.336V62.0731H172.565V62.5754H171.202V66.307H170.699Z" fill="black"/>
<path d="M173.713 66.307V62.0731H176.655V62.5754H174.215V63.9389H176.225V64.4412H174.215V65.8764H176.727V66.3787H173.713V66.307Z" fill="black"/>
<path d="M177.518 66.307L179.096 64.1542L177.661 62.1449H178.235L179.383 63.7954L180.532 62.1449H181.106L179.67 64.1542L181.249 66.307H180.675L179.383 64.513L178.092 66.307H177.518Z" fill="black"/>
<path d="M182.322 66.307V62.0731H182.825V63.8671H185.336V62.0731H185.839V66.307H185.336V64.3694H182.825V66.307H182.322Z" fill="black"/>
<path d="M187.205 64.2259C187.205 63.006 188.138 62.0731 189.358 62.0731C190.578 62.0731 191.511 63.006 191.511 64.2259C191.511 65.4458 190.578 66.3787 189.358 66.3787C188.138 66.3787 187.205 65.4458 187.205 64.2259ZM191.008 64.2259C191.008 63.293 190.219 62.5037 189.358 62.5037C188.425 62.5037 187.707 63.2213 187.707 64.2259C187.707 65.1588 188.497 65.9482 189.358 65.9482C190.291 65.8764 191.008 65.1588 191.008 64.2259Z" fill="black"/>
<path d="M192.299 66.307V65.8764C192.442 65.8764 192.442 65.8764 192.586 65.8764C193.303 65.8764 193.375 64.3694 193.375 62.0731H196.246V66.307H195.743V62.5754H193.806C193.806 64.6565 193.734 66.3787 192.586 66.3787C192.514 66.3787 192.442 66.307 192.299 66.307Z" fill="black"/>
<path d="M197.539 64.2259C197.539 63.006 198.472 62.0731 199.692 62.0731C200.912 62.0731 201.845 63.006 201.845 64.2259C201.845 65.4458 200.912 66.3787 199.692 66.3787C198.544 66.3787 197.539 65.4458 197.539 64.2259ZM201.414 64.2259C201.414 63.293 200.625 62.5037 199.764 62.5037C198.831 62.5037 198.113 63.2213 198.113 64.2259C198.113 65.1588 198.903 65.9482 199.764 65.9482C200.697 65.8764 201.414 65.1588 201.414 64.2259Z" fill="black"/>
<path d="M203.279 66.307V62.0731H205.576V62.5754H203.782V66.307H203.279Z" fill="black"/>
<path d="M210.24 66.307H209.738V62.8625L207.155 66.307H206.652V62.0731H207.155V65.5176L209.666 62.0731H210.169V66.307H210.24Z" fill="black"/>
<path d="M215.404 66.307H214.902V62.8625L212.319 66.307H211.816V62.0731H212.319V65.5176L214.83 62.0731H215.333V66.307H215.404Z" fill="black"/>
<path d="M135.107 22.0306H133.887H121.831L113.292 48.7256H113.148L104.609 22.0306H91.3328L92.8397 25.9057C89.0364 23.107 84.1567 21.1694 78.6311 21.1694C67.4364 21.1694 63.4896 27.8432 63.4896 34.3735C63.4896 43.5588 71.2397 46.9316 76.1195 48.4386C82.5779 50.3761 83.0085 51.596 83.0085 53.0313C83.0085 54.3947 81.9321 55.6146 78.6311 55.6146C74.9713 55.6146 71.455 54.0359 68.7281 50.7349L60.6191 58.4133C65.2836 64.1542 71.7421 67.1682 78.9181 67.1682C89.1799 67.1682 95.6384 61.3555 95.6384 52.816C95.6384 45.2811 90.7587 41.5495 82.3627 38.5356C77.9852 36.8851 75.9759 36.311 75.9759 34.9475C75.9759 33.5123 76.8371 32.5076 79.2052 32.5076C82.7215 32.5076 86.0942 34.7322 87.96 36.4545L94.1314 29.4937L108.197 66.3788H118.315L133.887 25.4034V33.7276H145.297V66.3788H157.712V33.7276H222.224L230.19 22.1024H135.107V22.0306Z" fill="#3B505B"/>
<path d="M49.9286 50.1608L25.0993 86.4L0.628906 50.5196L25.3146 67.0963L49.9286 50.1608Z" fill="#3B505B"/>
<path d="M0.628906 36.2392L25.4581 0L49.9286 35.8804L25.3146 19.3037L0.628906 36.2392Z" fill="#00A1B7"/>
</svg>
