<svg width="58" height="57" viewBox="0 0 58 57" fill="none" xmlns="http://www.w3.org/2000/svg">
<path fill-rule="evenodd" clip-rule="evenodd" d="M15.983 23.3972C13.2654 23.3972 11.0652 25.5974 11.0652 28.315V36.8218C11.0652 37.8008 11.7085 38.6142 12.5917 38.8607C12.9561 38.9624 13.169 39.3402 13.0674 39.7045C12.9657 40.0689 12.5879 40.2818 12.2235 40.1801C10.7506 39.7691 9.69531 38.4181 9.69531 36.8218V28.315C9.69531 24.8408 12.5088 22.0273 15.983 22.0273H25.9007C29.3749 22.0273 32.1884 24.8408 32.1884 28.315V36.8218C32.1884 38.3916 31.162 39.7051 29.7334 40.1473C29.372 40.2592 28.9884 40.0569 28.8765 39.6955C28.7647 39.3342 28.967 38.9506 29.3283 38.8387C30.2011 38.5686 30.8185 37.7726 30.8185 36.8218V28.315C30.8185 25.5974 28.6183 23.3972 25.9007 23.3972H15.983Z" fill="white"/>
<path fill-rule="evenodd" clip-rule="evenodd" d="M26.1615 30.9451C26.5398 30.9451 26.8464 31.2517 26.8464 31.63V50.6984C26.8464 51.0767 26.5398 51.3833 26.1615 51.3833C25.7832 51.3833 25.4766 51.0767 25.4766 50.6984V31.63C25.4766 31.2517 25.7832 30.9451 26.1615 30.9451Z" fill="white"/>
<path fill-rule="evenodd" clip-rule="evenodd" d="M15.6947 30.9451C16.073 30.9451 16.3796 31.2517 16.3796 31.63V50.6984C16.3796 51.0767 16.073 51.3833 15.6947 51.3833C15.3164 51.3833 15.0098 51.0767 15.0098 50.6984V31.63C15.0098 31.2517 15.3164 30.9451 15.6947 30.9451Z" fill="white"/>
<path fill-rule="evenodd" clip-rule="evenodd" d="M20.9423 8.16429C18.1414 8.16429 15.8601 10.434 15.8601 13.2465C15.8601 16.0473 18.1298 18.3286 20.9423 18.3286C23.7431 18.3286 26.0244 16.0589 26.0244 13.2465C26.0244 10.4467 23.7421 8.16429 20.9423 8.16429ZM14.4902 13.2465C14.4902 9.67536 17.387 6.79443 20.9423 6.79443C24.4986 6.79443 27.3943 9.69011 27.3943 13.2465C27.3943 16.8176 24.4975 19.6985 20.9423 19.6985C17.3712 19.6985 14.4902 16.8017 14.4902 13.2465Z" fill="white"/>
<path fill-rule="evenodd" clip-rule="evenodd" d="M20.9252 40.2737C21.3034 40.2737 21.6101 40.5803 21.6101 40.9586V50.6983C21.6101 51.0766 21.3034 51.3832 20.9252 51.3832C20.5469 51.3832 20.2402 51.0766 20.2402 50.6983V40.9586C20.2402 40.5803 20.5469 40.2737 20.9252 40.2737Z" fill="white"/>
<path fill-rule="evenodd" clip-rule="evenodd" d="M0 0.684928C0 0.306653 0.306653 0 0.684928 0H41.1916C41.5699 0 41.8765 0.306653 41.8765 0.684928V55.6162C41.8765 55.9944 41.5699 56.3011 41.1916 56.3011H0.684928C0.306653 56.3011 0 55.9944 0 55.6162V0.684928ZM1.36986 1.36986V54.9312H40.5066V1.36986H1.36986Z" fill="white"/>
<path fill-rule="evenodd" clip-rule="evenodd" d="M50.7522 15.3423C50.9843 15.3422 51.2006 15.4596 51.327 15.6542L56.9845 24.3665C57.1213 24.5771 57.1318 24.8456 57.012 25.0663C56.8922 25.287 56.6612 25.4244 56.4101 25.4244H45.1088C44.8578 25.4244 44.6269 25.2872 44.507 25.0667C44.3871 24.8462 44.3974 24.5778 44.5339 24.3671L50.1777 15.6548C50.3039 15.46 50.5201 15.3424 50.7522 15.3423ZM50.7533 17.2859L46.3685 24.0546H55.1486L50.7533 17.2859Z" fill="white"/>
<path fill-rule="evenodd" clip-rule="evenodd" d="M44.507 31.2342C44.6269 31.0137 44.8578 30.8765 45.1088 30.8765H56.4101C56.6612 30.8765 56.8922 31.0139 57.012 31.2346C57.1318 31.4552 57.1213 31.7238 56.9845 31.9344L51.327 40.6467C51.2006 40.8413 50.9843 40.9587 50.7522 40.9586C50.5201 40.9585 50.3039 40.8408 50.1777 40.6461L44.5339 31.9338C44.3974 31.7231 44.3871 31.4547 44.507 31.2342ZM46.3685 32.2463L50.7533 39.015L55.1486 32.2463H46.3685Z" fill="white"/>
</svg>
