<svg width="58" height="57" viewBox="0 0 58 57" fill="none" xmlns="http://www.w3.org/2000/svg">
<path fill-rule="evenodd" clip-rule="evenodd" d="M15.9825 23.3971C13.2649 23.3971 11.0647 25.5973 11.0647 28.3149V36.8217C11.0647 37.8008 11.708 38.6141 12.5913 38.8606C12.9556 38.9623 13.1686 39.3401 13.0669 39.7044C12.9652 40.0688 12.5874 40.2817 12.2231 40.1801C10.7501 39.769 9.69485 38.418 9.69485 36.8217V28.3149C9.69485 24.8408 12.5083 22.0273 15.9825 22.0273H25.9003C29.3744 22.0273 32.1879 24.8408 32.1879 28.3149V36.8217C32.1879 38.3915 31.1615 39.7051 29.7329 40.1472C29.3715 40.2591 28.9879 40.0568 28.8761 39.6955C28.7642 39.3341 28.9665 38.9505 29.3279 38.8386C30.2006 38.5685 30.818 37.7725 30.818 36.8217V28.3149C30.818 25.5973 28.6179 23.3971 25.9003 23.3971H15.9825Z" fill="#00A1B7"/>
<path fill-rule="evenodd" clip-rule="evenodd" d="M26.1613 30.9451C26.5395 30.9451 26.8462 31.2517 26.8462 31.63V50.6984C26.8462 51.0767 26.5395 51.3834 26.1613 51.3834C25.783 51.3834 25.4763 51.0767 25.4763 50.6984V31.63C25.4763 31.2517 25.783 30.9451 26.1613 30.9451Z" fill="#00A1B7"/>
<path fill-rule="evenodd" clip-rule="evenodd" d="M15.6947 30.9451C16.0729 30.9451 16.3796 31.2517 16.3796 31.63V50.6984C16.3796 51.0767 16.0729 51.3833 15.6947 51.3833C15.3164 51.3833 15.0097 51.0767 15.0097 50.6984V31.63C15.0097 31.2517 15.3164 30.9451 15.6947 30.9451Z" fill="#00A1B7"/>
<path fill-rule="evenodd" clip-rule="evenodd" d="M20.942 8.16431C18.1412 8.16431 15.8599 10.434 15.8599 13.2465C15.8599 16.0473 18.1296 18.3286 20.942 18.3286C23.7429 18.3286 26.0242 16.0589 26.0242 13.2465C26.0242 10.4467 23.7418 8.16431 20.942 8.16431ZM14.49 13.2465C14.49 9.67537 17.3867 6.79445 20.942 6.79445C24.4984 6.79445 27.3941 9.69013 27.3941 13.2465C27.3941 16.8176 24.4973 19.6985 20.942 19.6985C17.3709 19.6985 14.49 16.8018 14.49 13.2465Z" fill="#00A1B7"/>
<path fill-rule="evenodd" clip-rule="evenodd" d="M20.9248 40.2737C21.3031 40.2737 21.6097 40.5803 21.6097 40.9586V50.6983C21.6097 51.0766 21.3031 51.3832 20.9248 51.3832C20.5465 51.3832 20.2398 51.0766 20.2398 50.6983V40.9586C20.2398 40.5803 20.5465 40.2737 20.9248 40.2737Z" fill="#00A1B7"/>
<path fill-rule="evenodd" clip-rule="evenodd" d="M0 0.684928C0 0.306653 0.306653 0 0.684928 0H41.1916C41.5699 0 41.8765 0.306653 41.8765 0.684928V55.6162C41.8765 55.9944 41.5699 56.3011 41.1916 56.3011H0.684928C0.306653 56.3011 0 55.9944 0 55.6162V0.684928ZM1.36986 1.36986V54.9312H40.5066V1.36986H1.36986Z" fill="#3B505B"/>
<path fill-rule="evenodd" clip-rule="evenodd" d="M50.7522 15.3424C50.9843 15.3423 51.2006 15.4597 51.327 15.6543L56.9845 24.3666C57.1213 24.5772 57.1318 24.8458 57.012 25.0665C56.8922 25.2871 56.6612 25.4246 56.4101 25.4246H45.1088C44.8578 25.4246 44.6269 25.2873 44.507 25.0668C44.3871 24.8463 44.3974 24.5779 44.5339 24.3672L50.1777 15.6549C50.3039 15.4602 50.5201 15.3425 50.7522 15.3424ZM50.7533 17.286L46.3685 24.0547H55.1486L50.7533 17.286Z" fill="#00A1B7"/>
<path fill-rule="evenodd" clip-rule="evenodd" d="M44.507 31.2344C44.6269 31.0139 44.8578 30.8766 45.1088 30.8766H56.4101C56.6612 30.8766 56.8922 31.014 57.012 31.2347C57.1318 31.4554 57.1213 31.724 56.9845 31.9346L51.327 40.6469C51.2006 40.8415 50.9843 40.9589 50.7522 40.9588C50.5201 40.9586 50.3039 40.841 50.1777 40.6462L44.5339 31.9339C44.3974 31.7233 44.3871 31.4549 44.507 31.2344ZM46.3685 32.2465L50.7533 39.0151L55.1486 32.2465H46.3685Z" fill="#3B505B"/>
</svg>
