<svg width="86" height="86" viewBox="0 0 86 86" fill="none" xmlns="http://www.w3.org/2000/svg">
<circle cx="43" cy="43" r="43" fill="#00A1B7"/>
<path d="M64.0485 53.504H62.4832V31.8719C62.4832 30.1388 61.0252 28.719 59.2456 28.719H57.5088C56.9299 28.719 56.4796 29.1783 56.4796 29.7212C56.4796 30.2641 56.9513 30.7235 57.5088 30.7235H59.2456C59.8888 30.7235 60.4034 31.2246 60.4034 31.851V53.504H47.6886C46.7881 53.504 46.0377 54.1512 45.909 54.9656H39.1121C38.9834 54.1304 38.233 53.504 37.3324 53.504H24.6177V31.8719C24.6177 31.2455 25.1323 30.7444 25.7755 30.7444H27.5122C28.0912 30.7444 28.5414 30.285 28.5414 29.7421C28.5414 29.1992 28.0697 28.7398 27.5122 28.7398H25.7755C23.9959 28.7398 22.5378 30.1597 22.5378 31.8928V53.504H20.9726C19.8791 53.504 19 54.36 19 55.4041V56.9074C19 59.1625 20.9083 61 23.2668 61H61.7328C64.0913 61 65.9996 59.1625 65.9996 56.9074V55.4041C66.0211 54.36 65.1205 53.504 64.0485 53.504ZM63.9627 56.9074C63.9627 58.0559 62.9764 58.9746 61.7542 58.9746H23.2883C22.0661 58.9746 21.0798 58.035 21.0798 56.9074V55.5085H37.0966C37.2252 56.3437 37.9757 56.9701 38.8762 56.9701H46.1449C47.0454 56.9701 47.7958 56.3228 47.9245 55.5085H63.9412V56.9074H63.9627Z" fill="white"/>
<path d="M32.6368 24C30.9429 24 29.5921 25.3363 29.5921 26.965V49.829C29.5921 50.184 29.785 50.5181 30.1067 50.706C30.4283 50.8939 30.8357 50.873 31.1359 50.706L33.5802 49.2861L36.0245 50.706C36.3461 50.8939 36.7535 50.8939 37.0751 50.706L39.5195 49.2861L41.9638 50.706C42.1353 50.7895 42.3068 50.8521 42.4998 50.8521C42.6928 50.8521 42.8643 50.8104 43.0358 50.706L45.4802 49.2861L47.9245 50.706C48.2461 50.8939 48.6535 50.8939 48.9751 50.706L51.4194 49.2861L53.8638 50.706C54.1854 50.8939 54.5713 50.8939 54.893 50.706C55.2146 50.5181 55.4076 50.184 55.4076 49.829V26.9859C55.4076 25.3363 54.0353 24.0209 52.3629 24.0209H32.6368V24ZM53.3921 48.0751L51.9769 47.2607C51.6553 47.0728 51.2479 47.0728 50.9263 47.2607L48.482 48.6806L46.0376 47.2607C45.716 47.0728 45.3086 47.0728 44.987 47.2607L42.5427 48.6806L40.0984 47.2607C39.7768 47.0728 39.3694 47.0728 39.0477 47.2607L36.6034 48.6806L34.1591 47.2607C33.9876 47.1772 33.816 47.1146 33.6231 47.1146C33.4515 47.1146 33.2586 47.1563 33.087 47.2607L31.6719 48.0751V26.9859C31.6719 26.4639 32.1222 26.0254 32.6582 26.0254H52.4058C52.9418 26.0254 53.3921 26.4639 53.3921 26.9859V48.0751Z" fill="white"/>
<path d="M47.4528 29.5751C47.4528 29.0113 46.9811 28.5728 46.4236 28.5728H38.5975C38.0186 28.5728 37.5683 29.0322 37.5683 29.5751C37.5683 30.1179 38.04 30.5773 38.5975 30.5773H46.4236C47.0025 30.5773 47.4528 30.1388 47.4528 29.5751Z" fill="white"/>
<path d="M50.2187 33.7929H48.0103C47.4313 33.7929 46.9811 34.2523 46.9811 34.7951C46.9811 35.3589 47.4528 35.7974 48.0103 35.7974H50.2187C50.7976 35.7974 51.2479 35.338 51.2479 34.7951C51.2479 34.2523 50.7976 33.7929 50.2187 33.7929Z" fill="white"/>
<path d="M42.8858 33.7929H34.8023C34.2234 33.7929 33.7732 34.2523 33.7732 34.7951C33.7732 35.3589 34.2449 35.7974 34.8023 35.7974H42.8858C43.4647 35.7974 43.9149 35.338 43.9149 34.7951C43.9149 34.2523 43.4432 33.7929 42.8858 33.7929Z" fill="white"/>
<path d="M50.2187 37.8228H48.0103C47.4313 37.8228 46.9811 38.2822 46.9811 38.8251C46.9811 39.3888 47.4528 39.8273 48.0103 39.8273H50.2187C50.7976 39.8273 51.2479 39.3679 51.2479 38.8251C51.2479 38.2822 50.7976 37.8228 50.2187 37.8228Z" fill="white"/>
<path d="M42.8858 37.8228H34.8023C34.2234 37.8228 33.7732 38.2822 33.7732 38.8251C33.7732 39.3888 34.2449 39.8273 34.8023 39.8273H42.8858C43.4647 39.8273 43.9149 39.3679 43.9149 38.8251C43.9149 38.2822 43.4432 37.8228 42.8858 37.8228Z" fill="white"/>
<path d="M50.2187 41.8527H48.0103C47.4313 41.8527 46.9811 42.3121 46.9811 42.855C46.9811 43.4187 47.4528 43.8572 48.0103 43.8572H50.2187C50.7976 43.8572 51.2479 43.3979 51.2479 42.855C51.2479 42.3121 50.7976 41.8527 50.2187 41.8527Z" fill="white"/>
<path d="M42.8858 41.8527H34.8023C34.2234 41.8527 33.7732 42.3121 33.7732 42.855C33.7732 43.4187 34.2449 43.8572 34.8023 43.8572H42.8858C43.4647 43.8572 43.9149 43.3979 43.9149 42.855C43.9149 42.3121 43.4432 41.8527 42.8858 41.8527Z" fill="white"/>
</svg>
