<svg width="68" height="53" viewBox="0 0 68 53" fill="none" xmlns="http://www.w3.org/2000/svg">
<path fill-rule="evenodd" clip-rule="evenodd" d="M50.9313 5.56151C49.4269 5.56151 47.9713 6.16133 46.9088 7.2239L14.7171 39.4155C14.5887 39.544 14.4145 39.6161 14.2328 39.6161H5.58901C3.25497 39.6161 1.36986 41.5013 1.36986 43.8353V46.7805C1.36986 49.1145 3.25497 50.9997 5.58901 50.9997H16.8766C18.381 50.9997 19.8366 50.3998 20.8991 49.3373L21.3835 49.8216C20.8991 49.3373 20.8991 49.3373 20.8991 49.3373L26.3101 43.9263C26.5776 43.6588 27.0112 43.6588 27.2787 43.9263C27.5462 44.1938 27.5462 44.6275 27.2787 44.895L21.8682 50.3055C21.8682 50.3055 21.8678 50.3059 21.7455 50.1836L21.8682 50.3055C20.5472 51.6265 18.7421 52.3695 16.8766 52.3695H5.58901C2.49842 52.3695 0 49.8711 0 46.7805V43.8353C0 40.7447 2.49842 38.2463 5.58901 38.2463H13.9491L45.9401 6.25527C47.2611 4.93429 49.0658 4.19165 50.9313 4.19165H62.2189C65.3095 4.19165 67.8079 6.69007 67.8079 9.78067V12.7259C67.8079 15.8164 65.3095 18.3149 62.2189 18.3149H53.8588L52.0457 20.128C51.7782 20.3954 51.3446 20.3954 51.0771 20.128C50.8096 19.8605 50.8096 19.4268 51.0771 19.1593L53.0906 17.1458C53.2191 17.0173 53.3934 16.945 53.5751 16.945H62.2189C64.5529 16.945 66.438 15.0599 66.438 12.7259V9.78067C66.438 7.44662 64.5529 5.56151 62.2189 5.56151H50.9313Z" fill="white"/>
<path fill-rule="evenodd" clip-rule="evenodd" d="M18.0966 17.0273C16.0365 17.0273 14.3706 18.6933 14.3706 20.7533V32.3697C14.3706 32.748 14.0639 33.0547 13.6856 33.0547C13.3074 33.0547 13.0007 32.748 13.0007 32.3697V20.7533C13.0007 17.9367 15.28 15.6575 18.0966 15.6575H21.3705C24.1871 15.6575 26.4664 17.9367 26.4664 20.7533C26.4664 21.1316 26.1597 21.4383 25.7815 21.4383C25.4032 21.4383 25.0965 21.1316 25.0965 20.7533C25.0965 18.6933 23.4306 17.0273 21.3705 17.0273H18.0966Z" fill="white"/>
<path fill-rule="evenodd" clip-rule="evenodd" d="M19.7533 1.36986C16.9947 1.36986 14.7534 3.61114 14.7534 6.36983C14.7534 9.12853 16.9947 11.3698 19.7533 11.3698C22.512 11.3698 24.7533 9.12853 24.7533 6.36983C24.7533 3.61114 22.512 1.36986 19.7533 1.36986ZM13.3835 6.36983C13.3835 2.85459 16.2381 0 19.7533 0C23.2686 0 26.1232 2.85459 26.1232 6.36983C26.1232 9.88508 23.2686 12.7397 19.7533 12.7397C16.2381 12.7397 13.3835 9.88508 13.3835 6.36983Z" fill="white"/>
<path fill-rule="evenodd" clip-rule="evenodd" d="M48.5368 22.9267C48.6915 23.0814 48.763 23.3007 48.7292 23.5168L46.8525 35.5168C46.8126 35.7717 46.6328 35.9827 46.3874 36.0624C46.142 36.1421 45.8725 36.0771 45.6905 35.8942L42.9693 33.1615L33.3314 42.7994C33.203 42.9278 33.0288 43 32.8471 43C32.6654 43 32.4912 42.9278 32.3628 42.7994L28.6779 39.1144C28.4105 38.8471 28.4104 38.4137 28.6775 38.1461L38.3034 28.5072L35.5683 25.772C35.386 25.5897 35.3215 25.3205 35.4014 25.0754C35.4813 24.8303 35.692 24.6508 35.9467 24.611L47.9467 22.7343C48.1628 22.7005 48.3821 22.772 48.5368 22.9267ZM37.4897 25.7562L39.7561 28.0226C40.0234 28.2899 40.0235 28.7233 39.7564 28.9909L30.1305 38.6298L32.8471 41.3464L42.486 31.7075C42.6147 31.5788 42.7892 31.5067 42.9711 31.5069C43.153 31.5071 43.3273 31.5796 43.4557 31.7085L45.7079 33.9703L47.2307 24.2328L37.4897 25.7562Z" fill="white"/>
</svg>
