<svg width="68" height="53" viewBox="0 0 68 53" fill="none" xmlns="http://www.w3.org/2000/svg">
<path fill-rule="evenodd" clip-rule="evenodd" d="M50.9313 5.56162C49.4269 5.56162 47.9713 6.16144 46.9088 7.22401L14.7171 39.4156C14.5887 39.5441 14.4145 39.6163 14.2328 39.6163H5.58901C3.25497 39.6163 1.36986 41.5014 1.36986 43.8354V46.7806C1.36986 49.1146 3.25497 50.9998 5.58901 50.9998H16.8766C18.381 50.9998 19.8366 50.3999 20.8991 49.3374L21.3835 49.8217C20.8991 49.3374 20.8991 49.3374 20.8991 49.3374L26.3101 43.9264C26.5776 43.659 27.0112 43.659 27.2787 43.9264C27.5462 44.1939 27.5462 44.6276 27.2787 44.8951L21.8682 50.3056C21.8682 50.3056 21.8678 50.306 21.7455 50.1837L21.8682 50.3056C20.5472 51.6266 18.7421 52.3696 16.8766 52.3696H5.58901C2.49842 52.3696 0 49.8712 0 46.7806V43.8354C0 40.7448 2.49842 38.2464 5.58901 38.2464H13.9491L45.9401 6.25538C47.2611 4.9344 49.0658 4.19176 50.9313 4.19176H62.2189C65.3095 4.19176 67.8079 6.69019 67.8079 9.78078V12.726C67.8079 15.8166 65.3095 18.315 62.2189 18.315H53.8588L52.0457 20.1281C51.7782 20.3955 51.3446 20.3955 51.0771 20.1281C50.8096 19.8606 50.8096 19.4269 51.0771 19.1594L53.0906 17.1459C53.2191 17.0174 53.3934 16.9451 53.5751 16.9451H62.2189C64.5529 16.9451 66.438 15.06 66.438 12.726V9.78078C66.438 7.44674 64.5529 5.56162 62.2189 5.56162H50.9313Z" fill="black"/>
<path fill-rule="evenodd" clip-rule="evenodd" d="M18.096 17.0273C16.0359 17.0273 14.37 18.6932 14.37 20.7533V32.3697C14.37 32.748 14.0634 33.0546 13.6851 33.0546C13.3068 33.0546 13.0002 32.748 13.0002 32.3697V20.7533C13.0002 17.9367 15.2794 15.6574 18.096 15.6574H21.37C24.1866 15.6574 26.4658 17.9367 26.4658 20.7533C26.4658 21.1316 26.1592 21.4382 25.7809 21.4382C25.4026 21.4382 25.096 21.1316 25.096 20.7533C25.096 18.6932 23.43 17.0273 21.37 17.0273H18.096Z" fill="#00A1B7"/>
<path fill-rule="evenodd" clip-rule="evenodd" d="M19.7526 1.36986C16.9939 1.36986 14.7526 3.61114 14.7526 6.36983C14.7526 9.12853 16.9939 11.3698 19.7526 11.3698C22.5113 11.3698 24.7525 9.12853 24.7525 6.36983C24.7525 3.61114 22.5113 1.36986 19.7526 1.36986ZM13.3827 6.36983C13.3827 2.85459 16.2373 0 19.7526 0C23.2678 0 26.1224 2.85459 26.1224 6.36983C26.1224 9.88508 23.2678 12.7397 19.7526 12.7397C16.2373 12.7397 13.3827 9.88508 13.3827 6.36983Z" fill="#00A1B7"/>
<path fill-rule="evenodd" clip-rule="evenodd" d="M48.5361 22.9266C48.6908 23.0813 48.7623 23.3006 48.7285 23.5167L46.8518 35.5167C46.8119 35.7716 46.6321 35.9825 46.3867 36.0623C46.1413 36.142 45.8718 36.077 45.6898 35.8941L42.9686 33.1613L33.3307 42.7992C33.2023 42.9277 33.0281 42.9998 32.8464 42.9998C32.6647 42.9998 32.4905 42.9277 32.3621 42.7992L28.6772 39.1143C28.4098 38.847 28.4097 38.4135 28.6768 38.146L38.3027 28.5071L35.5676 25.7719C35.3853 25.5896 35.3208 25.3204 35.4007 25.0753C35.4806 24.8302 35.6913 24.6507 35.946 24.6109L47.946 22.7342C48.1621 22.7004 48.3814 22.7719 48.5361 22.9266ZM37.489 25.7561L39.7553 28.0224C40.0227 28.2898 40.0228 28.7232 39.7557 28.9907L30.1298 38.6297L32.8464 41.3463L42.4853 31.7073C42.614 31.5787 42.7885 31.5065 42.9704 31.5067C43.1523 31.5069 43.3266 31.5795 43.455 31.7084L45.7072 33.9702L47.23 24.2327L37.489 25.7561Z" fill="#00A1B7"/>
</svg>
