<svg width="86" height="86" viewBox="0 0 86 86" fill="none" xmlns="http://www.w3.org/2000/svg">
<circle cx="43" cy="43" r="43" fill="#00A1B7"/>
<path d="M24.3977 53.6323V37.7529H43.8695M43.8695 37.7529V53.6323M43.8695 37.7529L63.3157 37.7529V53.6323M36.558 37.8671V42.551L34.1208 41.797L31.709 42.551V37.8671M33.5348 61.5149V63H26.4772V61.5149M60.5454 61.5149V63H53.4878V61.5149M56.028 37.8671V42.551L53.5909 41.797L51.1791 42.551V37.8671M33.7885 35.8794V20H53.2603V35.8794M45.9474 20.1142V24.7981L43.5103 24.0441L41.0985 24.7981V20.1142M23 55.8714H64V59.847H23V55.8714ZM29.4741 48.7657H38.7911V52.33H29.4741V48.7657ZM48.9474 48.7656H58.2645V52.3299H48.9474V48.7656ZM38.8636 31.0127H48.1806V34.577H38.8636V31.0127Z" stroke="white" stroke-width="1.5" stroke-miterlimit="10" stroke-linecap="round" stroke-linejoin="round"/>
</svg>
