<svg width="66" height="66" viewBox="0 0 66 66" fill="none" xmlns="http://www.w3.org/2000/svg">
<path fill-rule="evenodd" clip-rule="evenodd" d="M27.8139 0.576613C27.8633 0.24527 28.1478 0 28.4828 0H37.5172C37.8522 0 38.1367 0.24527 38.1861 0.576613L39.2549 7.75313C41.8198 8.39302 44.2264 9.407 46.4343 10.7347L52.2617 6.40867C52.5309 6.20883 52.9059 6.23641 53.1429 6.47348L59.5265 12.8571C59.7636 13.0941 59.7912 13.4691 59.5913 13.7383L55.2667 19.5639C56.5951 21.7544 57.6079 24.1811 58.2469 26.7451L65.4234 27.8139C65.7547 27.8633 66 28.1478 66 28.4828V37.5172C66 37.8522 65.7547 38.1367 65.4234 38.1861L58.2469 39.2549C57.607 41.8198 56.593 44.2264 55.2654 46.4343L59.5913 52.2617C59.7912 52.5309 59.7636 52.9059 59.5265 53.1429L53.1429 59.5265C52.9059 59.7636 52.5309 59.7912 52.2617 59.5913L46.4361 55.2667C44.2456 56.595 41.8189 57.6079 39.2549 58.2469L38.1861 65.4234C38.1367 65.7547 37.8522 66 37.5172 66H28.4828C28.1478 66 27.8633 65.7547 27.8139 65.4234L26.7451 58.2469C24.1802 57.607 21.7736 56.593 19.5657 55.2654L13.7383 59.5913C13.4691 59.7912 13.0942 59.7636 12.8571 59.5265L6.47348 53.1429C6.23641 52.9059 6.20883 52.5309 6.40867 52.2617L10.7334 46.4361C9.40497 44.2456 8.39214 41.8189 7.75308 39.2549L0.576614 38.1861C0.24527 38.1367 0 37.8522 0 37.5172V28.4828C0 28.1478 0.24527 27.8633 0.576613 27.8139L7.75313 26.7451C8.39302 24.1802 9.407 21.7736 10.7347 19.5657L6.40867 13.7383C6.20883 13.4691 6.23641 13.0941 6.47348 12.8571L12.8571 6.47348C13.0942 6.23641 13.4691 6.20883 13.7383 6.40867L19.5639 10.7334C21.7544 9.40496 24.1811 8.39214 26.7451 7.75308L27.8139 0.576613ZM29.0658 1.35246L28.0156 8.40372C27.9746 8.67864 27.7696 8.90051 27.4988 8.96301C24.7589 9.59529 22.179 10.6751 19.8909 12.1216C19.6546 12.2709 19.3508 12.2596 19.1264 12.093L13.4008 7.84247L7.84247 13.4008L12.093 19.1264C12.2588 19.3498 12.2709 19.652 12.1234 19.8879C10.6743 22.2066 9.59484 24.7609 8.96301 27.4988C8.90051 27.7696 8.67864 27.9746 8.40372 28.0156L1.35246 29.0658V36.9342L8.40372 37.9844C8.67864 38.0254 8.90051 38.2304 8.96301 38.5012C9.59529 41.2411 10.6751 43.821 12.1216 46.1091C12.2709 46.3454 12.2596 46.6492 12.093 46.8736L7.84247 52.5993L13.4008 58.1575L19.1264 53.907C19.3498 53.7412 19.652 53.7291 19.8879 53.8766C22.2066 55.3257 24.7609 56.4052 27.4988 57.037C27.7696 57.0995 27.9746 57.3214 28.0156 57.5963L29.0658 64.6475H36.9342L37.9844 57.5963C38.0254 57.3214 38.2304 57.0995 38.5012 57.037C41.2411 56.4047 43.821 55.3249 46.1092 53.8784C46.3454 53.7291 46.6492 53.7404 46.8736 53.907L52.5993 58.1575L58.1576 52.5993L53.907 46.8736C53.7412 46.6502 53.7291 46.348 53.8766 46.1121C55.3257 43.7934 56.4052 41.2391 57.037 38.5012C57.0995 38.2304 57.3214 38.0254 57.5963 37.9844L64.6475 36.9342V29.0658L57.5963 28.0156C57.3214 27.9746 57.0995 27.7696 57.037 27.4988C56.4047 24.7589 55.3249 22.179 53.8784 19.8909C53.7291 19.6546 53.7405 19.3508 53.907 19.1264L58.1576 13.4008L52.5993 7.84247L46.8736 12.093C46.6502 12.2588 46.348 12.2709 46.1121 12.1234C43.7934 10.6743 41.2391 9.59484 38.5012 8.96301C38.2304 8.90051 38.0254 8.67864 37.9844 8.40372L36.9342 1.35246H29.0658Z" fill="#3B505B"/>
<path fill-rule="evenodd" clip-rule="evenodd" d="M32.973 15.2287C23.1581 15.2287 15.2016 23.1852 15.2016 33C15.2016 42.8148 23.1581 50.7713 32.973 50.7713C42.7878 50.7713 50.7443 42.8148 50.7443 33C50.7443 23.1852 42.7878 15.2287 32.973 15.2287ZM13.8492 33C13.8492 22.4382 22.4112 13.8762 32.973 13.8762C43.5347 13.8762 52.0967 22.4382 52.0967 33C52.0967 43.5618 43.5347 52.1238 32.973 52.1238C22.4112 52.1238 13.8492 43.5618 13.8492 33Z" fill="#00A1B7"/>
<path fill-rule="evenodd" clip-rule="evenodd" d="M28.7723 20.749C28.9631 20.874 29.0781 21.0867 29.0781 21.3148V30.4303C29.0781 31.6299 30.0508 32.6213 31.2691 32.6213H34.6772C35.8768 32.6213 36.8682 31.6486 36.8682 30.4303V21.3148C36.8682 21.0864 36.9835 20.8734 37.1747 20.7486C37.366 20.6237 37.6073 20.6038 37.8164 20.6956C42.055 22.5572 45.0371 26.7968 45.0371 31.7287C45.0371 36.312 42.4605 40.3226 38.6794 42.3308C38.3776 42.5005 38.2207 42.7767 38.2207 43.0352V50.8795C38.2207 51.253 37.9179 51.5557 37.5445 51.5557C37.171 51.5557 36.8682 51.253 36.8682 50.8795V43.0352C36.8682 42.2133 37.3588 41.5173 38.0275 41.1458C38.0297 41.1446 38.0319 41.1434 38.034 41.1422C38.0357 41.1413 38.0374 41.1404 38.0391 41.1395C41.3954 39.3596 43.6846 35.7985 43.6846 31.7287C43.6846 27.7325 41.4766 24.2425 38.2207 22.4078V30.4303C38.2207 32.4038 36.6154 33.9738 34.6772 33.9738H31.2691C29.2955 33.9738 27.7256 32.3685 27.7256 30.4303V22.4046C24.4516 24.2374 22.2617 27.7279 22.2617 31.7287C22.2617 35.7928 24.5453 39.3276 27.9028 41.1371C28.6072 41.494 29.0781 42.2352 29.0781 43.0352V50.8795C29.0781 51.253 28.7753 51.5557 28.4018 51.5557C28.0284 51.5557 27.7256 51.253 27.7256 50.8795V43.0352C27.7256 42.7571 27.5518 42.4737 27.2879 42.3417C27.2819 42.3387 27.276 42.3356 27.27 42.3324C23.4909 40.2997 20.9092 36.3171 20.9092 31.7287C20.9092 26.7989 23.8624 22.5573 28.1314 20.6949C28.3405 20.6037 28.5815 20.6241 28.7723 20.749Z" fill="#00A1B7"/>
</svg>
