<svg width="86" height="86" viewBox="0 0 86 86" fill="none" xmlns="http://www.w3.org/2000/svg">
<circle cx="43" cy="43" r="43" fill="#00A1B7"/>
<path d="M32.6541 55.1488H56.1943M63.8635 36.7077H56.3786M52.0829 33.1782H60.8116C61.7839 33.1782 62.6432 33.6739 63.0503 34.4274C64.5879 37.3224 68.2739 44.2626 68.3191 44.223L72.6834 46.305C72.8643 46.4042 73 46.5628 73 46.7611V54.6729C73 54.9307 72.7513 55.129 72.4799 55.129M68.3398 44.223H56.2644L56.1966 36.7077M52.0805 55.1488V27.7251C52.0805 26.7733 51.1986 26 50.1132 26H26.1886M23.5424 31.8099H15.3565M23.407 41.3676H14M34.9181 46.1464H22.4357M34.1486 36.5887H18.2516M65.1122 50.4417C68.0778 51.0557 69.9142 53.6617 69.214 56.2622C68.5137 58.8627 65.5419 60.473 62.5763 59.859C59.6107 59.2449 57.7743 56.639 58.4745 54.0385C59.1748 51.438 62.1466 49.8276 65.1122 50.4417ZM25.0536 50.4521C28.0192 51.0662 29.8557 53.6721 29.1554 56.2726C28.4551 58.8731 25.4833 60.4835 22.5177 59.8694C19.5521 59.2554 17.7157 56.6494 18.416 54.0489C19.1162 51.4484 22.088 49.8381 25.0536 50.4521Z" stroke="white" stroke-width="1.7" stroke-miterlimit="10" stroke-linecap="round" stroke-linejoin="round"/>
</svg>
